#!OML:ASF H:\Dans Jumps\Project 1\Capture day 1\Session 1\subject.ASF
:FULLY-SPECIFIED
:DEGREES
424
root 0.102688 17.3422 -7.62041 11.6664 -1.95495 -0.489336
lowerback 8.39484 0.440303 -0.789644
upperback 6.387 0.519822 1.35169
thorax 1.88864 0.203754 1.80393
lowerneck -14.0211 -0.0532118 -1.00093
upperneck 31.6209 -0.0145681 0.627116
head 12.8681 -0.0449579 0.41443
rclavicle 3.37934e-015 -5.96354e-015
rhumerus -38.8004 -23.8047 -68.0421
rradius 23.0344
rwrist 34.2064
rhand -17.4126 -21.6952
rfingers 7.12502
rthumb 8.83721 -51.4901
lclavicle 3.37934e-015 -5.96354e-015
lhumerus -34.9692 0.0876742 84.7355
lradius 28.2376
lwrist 21.7496
lhand -27.8429 -8.79202
lfingers 7.12502
lthumb -1.23419 21.1842
rfemur -30.0454 -2.41029 18.5813
rtibia 36.453
rfoot -16.7874 -0.230668
rtoes 6.60175
lfemur -28.3965 6.24969 -18.8891
ltibia 32.5183
lfoot -13.9322 5.59735
ltoes 0.725272
425
root 0.102649 17.3439 -7.60846 11.6268 -1.97117 -0.482543
lowerback 8.32509 0.439523 -0.794915
upperback 6.38416 0.518724 1.34162
thorax 1.92407 0.203015 1.79698
lowerneck -13.9912 -0.0603906 -1.01488
upperneck 31.6492 -0.0235231 0.633368
head 12.8736 -0.0498683 0.418017
rclavicle 6.55989e-015 1.27222e-014
rhumerus -38.3044 -23.4719 -68.5832
rradius 23.255
rwrist 33.6823
rhand -17.5087 -21.5639
rfingers 7.12502
rthumb 8.74447 -51.3628
lclavicle 6.55989e-015 1.27222e-014
lhumerus -34.8108 -0.124707 85.1006
lradius 28.6637
lwrist 21.8654
lhand -27.8724 -8.93146
lfingers 7.12502
lthumb -1.26271 21.0445
rfemur -29.9441 -2.4053 18.5724
rtibia 36.415
rfoot -16.8072 -0.309026
rtoes 6.2714
lfemur -28.2744 6.26199 -18.8913
ltibia 32.4618
lfoot -13.9426 5.60822
ltoes 0.693535
426
root 0.102576 17.3455 -7.59664 11.5907 -1.98654 -0.482126
lowerback 8.2501 0.438664 -0.790155
upperback 6.38162 0.518125 1.33249
thorax 1.96273 0.202814 1.78536
lowerneck -13.9666 -0.064957 -1.02044
upperneck 31.6841 -0.0271617 0.627871
head 12.883 -0.0529914 0.416429
rclavicle 4.37326e-015 2.14687e-014
rhumerus -37.8214 -23.1679 -69.0907
rradius 23.4616
rwrist 33.2328
rhand -17.5779 -21.4916
rfingers 7.12502
rthumb 8.67768 -51.2933
lclavicle 4.37326e-015 2.14687e-014
lhumerus -34.6503 -0.346452 85.4591
lradius 29.0825
lwrist 22.0073
lhand -27.8861 -8.99172
lfingers 7.12502
lthumb -1.27592 20.9842
rfemur -29.8493 -2.40458 18.572
rtibia 36.3783
rfoot -16.8275 -0.403985
rtoes 5.87149
lfemur -28.1601 6.27677 -18.8875
ltibia 32.4119
lfoot -13.9545 5.62052
ltoes 0.644992
427
root 0.102492 17.3471 -7.58499 11.5578 -2.00384 -0.487663
lowerback 8.17176 0.439706 -0.777549
upperback 6.37881 0.520481 1.32515
thorax 2.0029 0.204306 1.77103
lowerneck -13.9416 -0.0680434 -1.02251
upperneck 31.7224 -0.0272993 0.615318
head 12.8937 -0.0550774 0.412041
rclavicle 1.19271e-015 9.93923e-016
rhumerus -37.3588 -22.9028 -69.5541
rradius 23.6535
rwrist 32.8852
rhand -17.6434 -21.4326
rfingers 7.12502
rthumb 8.61444 -51.2369
lclavicle 1.19271e-015 9.93923e-016
lhumerus -34.4809 -0.578946 85.8134
lradius 29.4876
lwrist 22.1786
lhand -27.8752 -8.92166
lfingers 7.12502
lthumb -1.26538 21.0543
rfemur -29.7608 -2.40799 18.58
rtibia 36.342
rfoot -16.85 -0.51303
rtoes 5.39596
lfemur -28.0522 6.29675 -18.8785
ltibia 32.3674
lfoot -13.9682 5.63348
ltoes 0.59195
428
root 0.102411 17.3487 -7.57341 11.5281 -2.02368 -0.496011
lowerback 8.08839 0.443568 -0.762079
upperback 6.37605 0.5267 1.32008
thorax 2.04576 0.207762 1.75723
lowerneck -13.9113 -0.0702822 -1.02859
upperneck 31.7581 -0.0256077 0.604418
head 12.9022 -0.0565968 0.40925
rclavicle -1.78906e-015 -1.07344e-014
rhumerus -36.9138 -22.6264 -70.0031
rradius 23.8652
rwrist 32.5361
rhand -17.6639 -21.4461
rfingers 7.12502
rthumb 8.59474 -51.2512
lclavicle -1.78906e-015 -1.07344e-014
lhumerus -34.2918 -0.819472 86.1652
lradius 29.8583
lwrist 22.3685
lhand -27.8556 -8.76321
lfingers 7.12502
lthumb -1.24643 21.2129
rfemur -29.6774 -2.41664 18.5927
rtibia 36.3059
rfoot -16.8791 -0.635286
rtoes 4.84091
lfemur -27.9495 6.32245 -18.8683
ltibia 32.3268
lfoot -13.9838 5.64654
ltoes 0.535576
429
root 0.102284 17.3504 -7.56201 11.4997 -2.04885 -0.504552
lowerback 8.00506 0.452455 -0.748799
upperback 6.37253 0.539407 1.3163
thorax 2.08759 0.214374 1.74563
lowerneck -13.8786 -0.0736357 -1.03773
upperneck 31.7932 -0.0268108 0.600139
head 12.9099 -0.0588572 0.409124
rclavicle -9.93923e-016 -6.16232e-015
rhumerus -36.4884 -22.3481 -70.431
rradius 24.0856
rwrist 32.1861
rhand -17.6497 -21.4889
rfingers 7.12502
rthumb 8.60839 -51.2934
lclavicle -9.93923e-016 -6.16232e-015
lhumerus -34.0764 -1.0657 86.5131
lradius 30.1663
lwrist 22.549
lhand -27.8501 -8.62155
lfingers 7.12502
lthumb -1.24114 21.3546
rfemur -29.5979 -2.42469 18.6057
rtibia 36.2718
rfoot -16.9188 -0.766003
rtoes 4.23748
lfemur -27.8489 6.35368 -18.8588
ltibia 32.2872
lfoot -14.0014 5.66112
ltoes 0.480551
430
root 0.102114 17.3521 -7.55072 11.4722 -2.07655 -0.513279
lowerback 7.92136 0.46544 -0.737537
upperback 6.36953 0.55739 1.31379
thorax 2.12997 0.223523 1.73619
lowerneck -13.8413 -0.0790564 -1.05467
upperneck 31.8231 -0.0329593 0.608513
head 12.9145 -0.0625248 0.414501
rclavicle 1.98785e-016 5.36719e-015
rhumerus -36.0745 -22.0592 -70.8439
rradius 24.3023
rwrist 31.8166
rhand -17.6199 -21.5444
rfingers 7.12502
rthumb 8.63713 -51.3477
lclavicle 1.98785e-016 5.36719e-015
lhumerus -33.8347 -1.31547 86.8559
lradius 30.4089
lwrist 22.6984
lhand -27.8591 -8.55226
lfingers 7.12502
lthumb -1.2498 21.4238
rfemur -29.5198 -2.43507 18.6195
rtibia 36.2393
rfoot -16.9729 -0.901006
rtoes 3.58747
lfemur -27.7481 6.38588 -18.849
ltibia 32.2456
lfoot -14.0188 5.67843
ltoes 0.429495
431
root 0.101635 17.3538 -7.53994 11.4534 -2.10397 -0.518699
lowerback 7.83452 0.477805 -0.737536
upperback 6.35824 0.573971 1.3148
thorax 2.16541 0.23162 1.7368
lowerneck -13.7894 -0.0793422 -1.07332
upperneck 31.8533 -0.0313526 0.616691
head 12.916 -0.0630538 0.421235
rclavicle -5.36719e-015 3.18055e-015
rhumerus -35.6649 -21.7905 -71.2181
rradius 24.4683
rwrist 31.4815
rhand -17.6029 -21.5859
rfingers 7.12502
rthumb 8.65356 -51.3886
lclavicle -5.36719e-015 3.18055e-015
lhumerus -33.5868 -1.55323 87.1929
lradius 30.5906
lwrist 22.7875
lhand -27.899 -8.60072
lfingers 7.12502
lthumb -1.28838 21.3751
rfemur -29.4522 -2.44705 18.6306
rtibia 36.2082
rfoot -17.0449 -1.03238
rtoes 2.91234
lfemur -27.6569 6.42001 -18.8427
ltibia 32.1994
lfoot -14.0326 5.69154
ltoes 0.384948
